<svg xmlns="http://www.w3.org/2000/svg" xmlns:xlink="http://www.w3.org/1999/xlink" aria-hidden="true" role="img" class="iconify iconify--logos" width="35.93" height="32" preserveAspectRatio="xMidYMid meet" viewBox="0 0 256 228"><path fill="#00D8FF" d="M210.483 73.824a171.49 171.49 0 0 0-8.24-2.597c.465-1.9.893-3.777 1.273-5.621c6.238-30.281 2.16-54.676-11.769-62.708c-13.355-7.7-35.196.329-57.254 19.526a171.23 171.23 0 0 0-6.375 5.848a155.866 155.866 0 0 0-4.241-3.917C100.759 3.829 77.587-4.822 63.673 3.233C50.33 10.957 46.379 33.89 51.995 62.588a170.974 170.974 0 0 0 1.892 8.48c-3.28.932-6.445 1.924-9.474 2.98C17.309 83.498 0 98.307 0 113.668c0 15.865 18.582 31.778 46.812 41.427a145.52 145.52 0 0 0 6.921 2.165a167.467 167.467 0 0 0-2.01 9.138c-5.354 28.2-1.173 50.591 12.134 58.266c13.744 7.926 36.812-.22 59.273-19.855a145.567 145.567 0 0 0 5.342-4.923a168.064 168.064 0 0 0 6.92 6.314c21.758 18.722 43.246 26.282 56.54 18.586c13.731-7.949 18.194-32.003 12.4-61.268a145.016 145.016 0 0 0-1.535-6.842c1.62-.48 3.21-.977 4.76-1.494c29.013-9.66 48.195-25.854 48.195-42.056c0-15.534-17.73-30.828-45.587-40.48Zm-127.36 81.07c-11.726 3.25-24.04 5.263-36.59 5.986c-12.55.724-24.66.139-35.815-1.733c-10.103-1.693-19.134-4.34-26.665-7.805C-21.91 147.43-26 141.09-26 134.668c0-6.422 4.09-12.762 10.053-16.684c6.535-4.304 15.432-7.747 26.377-10.228c9.99-2.262 21.052-3.597 32.8-3.97c11.749-.373 23.796.18 35.717 1.647c12.923 1.592 25.08 4.273 35.986 7.932c11.907 3.993 21.856 9.002 29.38 14.775c6.893 5.29 11.21 11.013 12.62 16.832c1.41 5.82 0 11.636-4.137 17.04c-4.533 5.926-12.02 11.176-22.046 15.422c-9.246 3.913-20.2 6.84-32.397 8.647Zm121.588-14.76c2.83 18.63 1.394 35.025-4.199 47.793c-4.963 11.323-13.296 18.86-24.34 22.009c-10.49 2.985-22.982.97-36.49-5.902a117.91 117.91 0 0 1-9.5-5.408a168.087 168.087 0 0 0 7.347-7.186a163.488 163.488 0 0 0 5.793-6.33c9.71-11.08 18.29-23.587 25.455-37.164a167.472 167.472 0 0 0 3.795-7.693a143.974 143.974 0 0 0 19.14 5.054a117.91 117.91 0 0 1 12.999 4.827Zm-37.53-27.93a127.54 127.54 0 0 1-9.094 14.595a132.406 132.406 0 0 1-11.11 13.938a127.54 127.54 0 0 1-13.001 12.408a132.406 132.406 0 0 1-14.556 10.6a127.54 127.54 0 0 1-15.585 8.426a132.406 132.406 0 0 1-16.156 5.945a127.54 127.54 0 0 1-16.275 3.347a132.406 132.406 0 0 1-15.927.692a127.54 127.54 0 0 1-15.13-1.927c-15.06-3.24-26.08-10.29-32.11-20.2c-7.096-11.657-7.556-26.927-1.33-44.388a117.91 117.91 0 0 1 4.614-11.373a143.974 143.974 0 0 0 18.07 7.48a168.087 168.087 0 0 0 9.76 2.933a163.488 163.488 0 0 0 8.538 1.977c9.98-12.588 21.31-24.07 33.69-34.168a167.472 167.472 0 0 0 7.693-5.942a143.974 143.974 0 0 0-15.33-10.828a117.91 117.91 0 0 1-11.373-6.69c-11.62-8.046-18.75-16.866-20.83-25.819c-2.418-10.402.97-20.614 9.9-29.758c8.014-8.21 19.68-14.093 34.076-17.13c13.666-2.88 28.912-2.79 44.28.263a117.91 117.91 0 0 1 12.34 3.236a143.974 143.974 0 0 0-7.48 17.316a168.087 168.087 0 0 0-2.933 8.768a163.488 163.488 0 0 0-1.977 8.538c13.62 7.65 26.1 16.772 36.99 27.058a167.472 167.472 0 0 0 5.942 5.976a143.974 143.974 0 0 0 11.72-14.29a117.91 117.91 0 0 1 6.69-9.66c9.157-12.013 18.967-20.077 28.689-23.538c10.99-3.913 21.52-2.16 30.68 5.125c8.21 6.535 13.73 16.41 16.09 28.788c2.24 11.74 1.63 25.247-1.76 39.326a117.91 117.91 0 0 1-2.94 10.53a143.974 143.974 0 0 0-18.78-4.68a168.087 168.087 0 0 0-10.02-1.415Zm-28.19-32.51c-6.143 0-11.129 4.986-11.129 11.129c0 6.143 4.986 11.129 11.129 11.129c6.143 0 11.129-4.986 11.129-11.129c0-6.143-4.986-11.129-11.129-11.129Z"></path></svg>
